<svg xmlns="http://www.w3.org/2000/svg" viewBox="0 0 64 64">
  <rect width="64" height="64" fill="#0E0E0F"/>
  <circle cx="32" cy="32" r="26" stroke="#E9E7E1" stroke-width="2.4" fill="none"/>
  <path d="M 14.20 44.93 L 13.62 43.53 L 13.13 42.12 L 12.75 40.69 L 12.47 39.26 L 12.29 37.84 L 12.21 36.42 L 12.23 35.03 L 12.34 33.65 L 12.54 32.31 L 12.83 31.00 L 13.20 29.72 L 13.65 28.50 L 14.17 27.32 L 14.77 26.20 L 15.43 25.14 L 16.15 24.13 L 16.93 23.19 L 17.76 22.32 L 18.63 21.52 L 19.55 20.79 L 20.50 20.13 L 21.48 19.55 L 22.48 19.04 L 23.50 18.60 L 24.53 18.24 L 25.57 17.96 L 26.62 17.75 L 27.66 17.61 L 28.69 17.55 L 29.71 17.56 L 30.72 17.63 L 31.70 17.77 L 32.66 17.98 L 33.59 18.24 L 34.49 18.57 L 35.35 18.95 L 36.17 19.38 L 36.96 19.86 L 37.69 20.38 L 38.38 20.95 L 39.02 21.55 L 39.61 22.19 L 40.15 22.85 L 40.64 23.54 L 41.07 24.26 L 41.44 24.99 L 41.76 25.73 L 42.03 26.49 L 42.24 27.25 L 42.40 28.01 L 42.50 28.77 L 42.55 29.52 L 42.55 30.27 L 42.50 31.01 L 42.40 31.73 L 42.26 32.43 L 42.06 33.11 L 41.83 33.77 L 41.56 34.40 L 41.24 35.00 L 40.90 35.58 L 40.52 36.12 L 40.11 36.62 L 39.67 37.09 L 39.20 37.53 L 38.72 37.92 L 38.22 38.28 L 37.70 38.60 L 37.16 38.88 L 36.62 39.11 L 36.07 39.31 L 35.51 39.47 L 34.96 39.59 L 34.40 39.67 L 33.85 39.71 L 33.30 39.71 L 32.77 39.67 L 32.24 39.60 L 31.72 39.50 L 31.23 39.36 L 30.74 39.19 L 30.28 39.00 L 29.84 38.77 L 29.42 38.52 L 29.02 38.24 L 28.65 37.94 L 28.30 37.63 L 27.99 37.29 L 27.69 36.94 L 27.43 36.57 L 27.20 36.19 L 26.99 35.80 L 26.82 35.41 L 26.67 35.00 L 26.55 34.60 L 26.46 34.19 L 26.40 33.79 L 26.37 33.38 L 26.37 32.98 L 26.39 32.59 L 26.44 32.20 L 26.52 31.83 L 26.61 31.46 L 26.73 31.11 L 26.88 30.77 L 27.04 30.45 L 27.22 30.14 L 27.42 29.85 L 27.64 29.57 L 27.87 29.32 L 28.12 29.09 L 28.37 28.87 L 28.64 28.68 L 28.92 28.50 L 29.20 28.35 L 29.49 28.22 L 29.78 28.11 L 30.08 28.03 L 30.38 27.96 L 30.67 27.92 L 30.97 27.89 L 31.26 27.89 L 31.55 27.90 L 31.83 27.94 L 32.11 27.99 L 32.37 28.06 L 32.63 28.15 L 32.88 28.25 L 33.12 28.37 L 33.34 28.50 L 33.56 28.65 L 33.76 28.80 L 33.94 28.97 L 34.12 29.15 L 34.27 29.34 L 34.42 29.53 L 34.54 29.73 L 34.66 29.94 L 34.75 30.15 L 34.83 30.36 L 34.90 30.58 L 34.95 30.80 L 34.98 31.01 L 35.00 31.23 L 35.00 31.44 L 34.99 31.65 L 34.97 31.86 L 34.93 32.06 L 34.88 32.26 L 34.82 32.45 L 34.75 32.63 L 34.66 32.80 L 34.56 32.97 L 34.46 33.13 L 34.34 33.27 L 34.22 33.41 L 34.09 33.54 L 33.96 33.65 L 33.81 33.76 L 33.67 33.85 L 33.52 33.93 L 33.36 34.01 L 33.21 34.07 L 33.05 34.11 L 32.89 34.15 L 32.73 34.18 L 32.57 34.19 L 32.42 34.19 L 32.26 34.19 L 32.11 34.17 L 31.97 34.14 L 31.82 34.11 L 31.68 34.06 L 31.55 34.01 L 31.42 33.95 L 31.30 33.88 L 31.19 33.80 L 31.08 33.72 L 30.98 33.63 L 30.88 33.54 L 30.80 33.44 L 30.72 33.33 L 30.65 33.23 L 30.59 33.12 L 30.54 33.00 L 30.49 32.89 L 30.46 32.78 L 30.43 32.66 L 30.41 32.54 L 30.40 32.43 L 30.40 32.31 L 30.40 32.20 L 30.41 32.09 L 30.43 31.98 L 30.46 31.88 L 30.49 31.78 L 30.53 31.68 L 30.57 31.59 L 30.62 31.50 L 30.68 31.41 L 30.74 31.33 L 30.80 31.26 L 30.87 31.19 L 30.95 31.13 L 31.02 31.07 L 31.10 31.02 L 31.18 30.97 L 31.26 30.94 L 31.34 30.90 L 31.43 30.88 L 31.51 30.86 L 31.60 30.84 L 31.68 30.83 L 31.76 30.83 L 31.85 30.83 L 31.93 30.84 L 32.01 30.85 L 32.08 30.87 L 32.16 30.90 L 32.23 30.92 L 32.30 30.96 L 32.36 30.99 L 32.42 31.03 L 32.48 31.08 L 32.54 31.12 L 32.59 31.17 L 32.63 31.23 L 32.68 31.28 L 32.71 31.34 L 32.75 31.40 L 32.78 31.46 L 32.80 31.52 L 32.82 31.58 L 32.83 31.64 L 32.85 31.70 L 32.85 31.76 L 32.86 31.82 L 32.85 31.88 L 32.85 31.94 L 32.84 32.00" stroke="#E07A4A" stroke-width="1.6" fill="none" stroke-linecap="round" stroke-linejoin="round"/>
</svg>