<svg xmlns="http://www.w3.org/2000/svg" xmlns:xlink="http://www.w3.org/1999/xlink" id="Layer_1" x="0px" y="0px" width="575.43px" height="109px" viewBox="0 0 575.43 109" xml:space="preserve"><g>	<path fill="#FFFFFF" d="M34.148,43.174c0.025,2.768,0.128,4.651,0.308,5.651c0.615,3.46,2.473,5.716,5.575,6.767  c1.922,0.641,5.998,0.961,12.226,0.961c5.69,0,9.56-0.282,11.611-0.846c2.716-0.718,4.446-1.986,5.19-3.807  c0.231-0.589,0.41-1.358,0.538-2.307h5.729c-0.23,3.179-1.256,5.665-3.076,7.458c-1.845,1.795-4.511,2.961-7.997,3.498  c-3.178,0.486-7.279,0.73-12.303,0.73c-7.074,0-12.29-0.563-15.647-1.691c-2.64-0.871-4.613-2.588-5.92-5.151  c-1.41-2.819-2.115-6.934-2.115-12.342c0-5.382,0.705-9.482,2.115-12.303c1.307-2.563,3.28-4.28,5.92-5.151  c3.332-1.128,8.522-1.691,15.571-1.691c8.535,0,14.225,0.769,17.07,2.307c3.024,1.666,4.972,4.511,5.844,8.535  c0.461,2.051,0.679,5.177,0.654,9.381H34.148z M69.519,38.599c-0.026-2.64-0.397-4.639-1.115-5.998  c-1.153-2.204-3.114-3.626-5.882-4.268c-1.871-0.436-5.421-0.653-10.649-0.653c-5.844,0-9.74,0.308-11.688,0.923  c-2.871,0.897-4.704,2.704-5.498,5.421c-0.282,1.025-0.461,2.551-0.538,4.575H69.519z"></path>	<path fill="#FFFFFF" d="M87.742,96.744V8.265h50.21v5.267H94.047v18.07h41.675V36.6H94.047v60.144H87.742z"></path>	<path fill="#FFFFFF" d="M170.477,22.952c7.458,0,12.866,0.563,16.225,1.691c2.614,0.871,4.575,2.589,5.882,5.151  c1.41,2.846,2.115,7.036,2.115,12.572c0,7.458-1.525,12.533-4.575,15.225c-1.691,1.461-4.229,2.459-7.612,2.998  c-2.845,0.461-6.856,0.691-12.034,0.691c-7.484,0-12.893-0.563-16.224-1.691c-2.64-0.896-4.601-2.614-5.882-5.151  c-1.41-2.819-2.115-6.934-2.115-12.342c0-5.382,0.705-9.482,2.115-12.303c1.307-2.563,3.268-4.28,5.882-5.151  C157.61,23.515,163.019,22.952,170.477,22.952z M170.593,27.68c-5.921,0-9.996,0.32-12.226,0.961  c-1.538,0.437-2.729,1.103-3.575,1.999c-0.846,0.897-1.487,2.167-1.922,3.807c-0.487,1.896-0.73,4.447-0.73,7.65  c0,6.023,0.974,9.945,2.922,11.765c1.153,1.076,2.909,1.794,5.267,2.153c2.281,0.359,5.664,0.538,10.149,0.538  c5.869,0,9.906-0.32,12.111-0.961c2.05-0.59,3.523-1.615,4.421-3.076c1.205-1.999,1.807-5.407,1.807-10.227  c0-6.125-0.974-10.098-2.922-11.918c-1.128-1.077-2.883-1.794-5.267-2.153C178.345,27.86,175,27.68,170.593,27.68z"></path>	<path fill="#FFFFFF" d="M206.231,60.744V23.49h5.613v7.305c0.846-2.589,2.102-4.46,3.768-5.613  c1.281-0.871,2.986-1.474,5.113-1.807c1.846-0.282,4.523-0.423,8.035-0.423c3.409,0,6.011,0.205,7.805,0.615  c3.896,0.897,6.472,2.819,7.728,5.767c0.743,1.769,1.115,4.396,1.115,7.881v2.23h-5.613v-1.961c0-2.922-0.333-4.984-0.999-6.189  c-0.923-1.641-2.679-2.704-5.268-3.191c-1.538-0.281-3.64-0.423-6.305-0.423c-5.665,0-9.625,0.846-11.88,2.537  c-2.333,1.769-3.499,4.627-3.499,8.574v21.953H206.231z"></path>	<path fill="#FFFFFF" d="M259.902,43.174c0.025,2.768,0.128,4.651,0.308,5.651c0.615,3.46,2.473,5.716,5.574,6.767  c1.923,0.641,5.998,0.961,12.227,0.961c5.689,0,9.56-0.282,11.61-0.846c2.716-0.718,4.446-1.986,5.19-3.807  c0.23-0.589,0.409-1.358,0.538-2.307h5.729c-0.231,3.179-1.257,5.665-3.076,7.458c-1.846,1.795-4.511,2.961-7.996,3.498  c-3.179,0.486-7.28,0.73-12.303,0.73c-7.074,0-12.29-0.563-15.647-1.691c-2.641-0.871-4.614-2.588-5.921-5.151  c-1.41-2.819-2.115-6.934-2.115-12.342c0-5.382,0.705-9.482,2.115-12.303c1.307-2.563,3.28-4.28,5.921-5.151  c3.331-1.128,8.521-1.691,15.57-1.691c8.535,0,14.225,0.769,17.069,2.307c3.024,1.666,4.973,4.511,5.845,8.535  c0.461,2.051,0.679,5.177,0.653,9.381H259.902z M295.272,38.599c-0.025-2.64-0.397-4.639-1.115-5.998  c-1.153-2.204-3.114-3.626-5.882-4.268c-1.871-0.436-5.421-0.653-10.649-0.653c-5.844,0-9.74,0.308-11.688,0.923  c-2.871,0.897-4.704,2.704-5.498,5.421c-0.282,1.025-0.461,2.551-0.538,4.575H295.272z"></path>	<path fill="#FFFFFF" d="M312.458,60.744V23.49h5.613v7.382c1-2.794,2.486-4.806,4.46-6.036c1.512-0.923,3.511-1.563,5.998-1.923  c2.152-0.308,5.292-0.461,9.419-0.461c3.946,0,6.959,0.205,9.034,0.615c4.511,0.923,7.497,2.922,8.958,5.997  c0.871,1.846,1.308,4.589,1.308,8.228v23.453h-5.613V37.561c0-3.588-0.692-5.998-2.076-7.229c-1.358-1.204-3.537-1.985-6.536-2.345  c-1.717-0.205-3.935-0.308-6.65-0.308c-4.998,0-8.895,0.461-11.688,1.384c-4.409,1.487-6.613,4.755-6.613,9.804v21.876H312.458z"></path>	<path fill="#FFFFFF" d="M408.111,34.024v-0.846c0-2.076-0.628-3.447-1.884-4.114c-1.871-0.947-6.369-1.422-13.494-1.422  c-6.716,0-11.342,0.282-13.879,0.846c-1.436,0.308-2.499,0.91-3.191,1.807c-0.615,0.82-0.923,2.038-0.923,3.652  c0,2.333,0.858,3.832,2.576,4.498c0.769,0.308,1.935,0.5,3.499,0.577c1.589,0.103,5.189,0.167,10.803,0.192  c8.099,0.076,13.303,0.295,15.609,0.653c3.023,0.487,5.151,1.653,6.382,3.498c0.948,1.41,1.423,3.602,1.423,6.574  c0,3.563-0.719,6.139-2.153,7.728c-1.461,1.615-3.909,2.641-7.343,3.076c-2.846,0.357-7.523,0.537-14.033,0.537  c-7.587,0-12.79-0.281-15.609-0.846c-2.974-0.563-5.113-2.012-6.42-4.344c-0.59-1.05-0.937-2.127-1.038-3.229  c-0.103-0.974-0.154-2.216-0.154-3.729v-0.962h5.768v0.923c0,1.923,0.141,3.243,0.423,3.96c0.563,1.461,1.896,2.384,3.998,2.769  c2.845,0.487,7.676,0.73,14.494,0.73c7.355,0,11.893-0.371,13.609-1.115c1.718-0.717,2.576-2.46,2.576-5.229  c0-2.563-0.653-4.203-1.961-4.921c-1.025-0.563-2.755-0.936-5.189-1.115c-0.667-0.025-4.217-0.077-10.65-0.153  c-7.33-0.052-11.648-0.128-12.956-0.231c-3.742-0.307-6.292-1.281-7.65-2.922c-1.256-1.537-1.884-3.844-1.884-6.92  c0-4.485,1.409-7.433,4.229-8.843c1.692-0.846,4.088-1.435,7.189-1.769c2.307-0.256,5.818-0.384,10.534-0.384  c7.868,0,13.008,0.282,15.417,0.846c3.537,0.846,5.792,2.46,6.767,4.844c0.513,1.205,0.769,2.794,0.769,4.768v0.615H408.111z"></path>	<path fill="#FFFFFF" d="M426.026,14.608V7.727h5.613v6.882H426.026z M426.026,60.744V23.49h5.613v37.254H426.026z"></path>	<path fill="#FFFFFF" d="M489.924,47.172c-0.103,2.025-0.256,3.46-0.461,4.306c-0.897,3.794-2.96,6.409-6.189,7.842  c-2.974,1.309-8.587,1.961-16.84,1.961c-7.202,0-12.393-0.563-15.57-1.691c-2.537-0.896-4.409-2.614-5.613-5.151  c-1.358-2.819-2.038-6.934-2.038-12.342c0-5.382,0.68-9.482,2.038-12.303c1.204-2.537,3.076-4.254,5.613-5.151  c3.178-1.128,8.355-1.691,15.532-1.691c8.714,0,14.455,0.782,17.224,2.345c3.127,1.769,4.972,4.601,5.536,8.497  c0.051,0.384,0.115,1.307,0.192,2.768h-6.113c0-0.23,0-0.486,0-0.769c0-2.255-0.68-4.037-2.037-5.344  c-1.18-1.128-2.871-1.885-5.075-2.269c-1.974-0.333-5.396-0.5-10.265-0.5c-5.512,0-9.15,0.308-10.919,0.923  c-2.691,0.923-4.409,2.871-5.151,5.844c-0.462,1.922-0.692,4.485-0.692,7.689c0,5.972,0.923,9.867,2.768,11.688  c1.153,1.179,2.794,1.948,4.922,2.307c1.769,0.282,5.036,0.423,9.804,0.423c6.048,0,9.995-0.32,11.841-0.961  c2.922-1.025,4.639-2.871,5.152-5.536c0.128-0.718,0.204-1.679,0.23-2.884H489.924z"></path>	<path fill="#FFFFFF" d="M538.674,34.024v-0.846c0-2.076-0.628-3.447-1.884-4.114c-1.871-0.947-6.369-1.422-13.494-1.422  c-6.716,0-11.342,0.282-13.879,0.846c-1.436,0.308-2.499,0.91-3.191,1.807c-0.615,0.82-0.923,2.038-0.923,3.652  c0,2.333,0.858,3.832,2.576,4.498c0.769,0.308,1.935,0.5,3.499,0.577c1.589,0.103,5.189,0.167,10.803,0.192  c8.099,0.076,13.303,0.295,15.609,0.653c3.023,0.487,5.151,1.653,6.382,3.498c0.948,1.41,1.423,3.602,1.423,6.574  c0,3.563-0.719,6.139-2.153,7.728c-1.461,1.615-3.909,2.641-7.343,3.076c-2.846,0.357-7.523,0.537-14.033,0.537  c-7.587,0-12.79-0.281-15.609-0.846c-2.974-0.563-5.113-2.012-6.42-4.344c-0.59-1.05-0.937-2.127-1.038-3.229  c-0.103-0.974-0.154-2.216-0.154-3.729v-0.962h5.768v0.923c0,1.923,0.141,3.243,0.423,3.96c0.563,1.461,1.896,2.384,3.998,2.769  c2.845,0.487,7.676,0.73,14.494,0.73c7.355,0,11.893-0.371,13.609-1.115c1.718-0.717,2.576-2.46,2.576-5.229  c0-2.563-0.653-4.203-1.961-4.921c-1.025-0.563-2.755-0.936-5.189-1.115c-0.667-0.025-4.217-0.077-10.65-0.153  c-7.33-0.052-11.648-0.128-12.956-0.231c-3.742-0.307-6.292-1.281-7.65-2.922c-1.256-1.537-1.884-3.844-1.884-6.92  c0-4.485,1.409-7.433,4.229-8.843c1.692-0.846,4.088-1.435,7.189-1.769c2.307-0.256,5.818-0.384,10.534-0.384  c7.868,0,13.008,0.282,15.417,0.846c3.537,0.846,5.792,2.46,6.767,4.844c0.513,1.205,0.769,2.794,0.769,4.768v0.615H538.674z"></path></g><g>	<path fill="#FFFFFF" d="M131.399,86.185v9.41h-2.659V86.91c0-3.608-1.208-5.124-3.754-5.124c-2.498,0-4.512,2.225-4.512,5.834  v7.975h-2.659v-8.717c0-3.561-1.321-5.092-3.819-5.092c-2.626,0-4.657,2.224-4.657,5.833v7.976h-2.659V79.53h2.659v2.739h0.048  c1.321-1.886,3.303-2.933,5.398-2.933c2.465,0,4.222,0.999,5.076,3.126h0.064c1.305-1.998,3.416-3.126,5.849-3.126  C129.433,79.337,131.399,81.448,131.399,86.185z"></path>	<path fill="#FFFFFF" d="M160.403,79.53v16.064h-2.562V93.05h-0.048c-1.29,1.724-3.255,2.755-5.624,2.755  c-4.431,0-7.879-3.223-7.879-8.138c0-4.753,3.319-8.33,7.863-8.33c2.191,0,4.173,0.902,5.51,2.578h0.064V79.53H160.403z   M152.426,93.354c2.884,0,5.398-2.271,5.398-5.671c0-3.304-2.288-5.897-5.366-5.897c-3.062,0-5.446,2.32-5.446,5.897  C147.013,90.922,149.156,93.354,152.426,93.354L152.426,93.354z"></path>	<path fill="#FFFFFF" d="M189.262,79.53v14.856c0,4.624-2.304,7.927-7.896,7.927c-2.4,0-4.625-0.579-6.542-1.739l0.645-2.466  c1.869,1.064,3.48,1.692,5.769,1.692c3.625,0,5.414-2.11,5.414-4.722V92.84h-0.081c-1.273,1.547-3.126,2.45-5.446,2.45  c-4.271,0-7.767-3.159-7.767-7.961c0-4.544,3.271-7.992,7.637-7.992c2.143,0,4.158,0.838,5.543,2.417h0.064V79.53H189.262z   M181.334,92.791c3.239,0,5.366-2.368,5.366-5.575c0-3.238-2.336-5.398-5.366-5.398c-3.078,0-5.253,2.338-5.253,5.432  C176.081,90.665,178.45,92.792,181.334,92.791L181.334,92.791z"></path>	<path fill="#FFFFFF" d="M218.411,79.53v16.064h-2.562V93.05H215.8c-1.29,1.724-3.255,2.755-5.624,2.755  c-4.431,0-7.879-3.223-7.879-8.138c0-4.753,3.319-8.33,7.863-8.33c2.191,0,4.173,0.902,5.51,2.578h0.064V79.53H218.411z   M210.434,93.354c2.884,0,5.398-2.271,5.398-5.671c0-3.304-2.288-5.897-5.366-5.897c-3.062,0-5.446,2.32-5.446,5.897  C205.021,90.922,207.164,93.354,210.434,93.354L210.434,93.354z"></path>	<path fill="#FFFFFF" d="M234.766,93.211v0.064h9.362v2.319H231.14V93.63l9.313-11.715v-0.064h-8.814v-2.32h12.504v1.918  L234.766,93.211z"></path>	<path fill="#FFFFFF" d="M256.873,74.681c0-1.047,0.822-1.885,1.901-1.885c1.047,0,1.901,0.838,1.901,1.885  c0,1.031-0.854,1.869-1.901,1.869C257.695,76.55,256.873,75.712,256.873,74.681z M257.421,79.53h2.658v16.064h-2.658V79.53z"></path>	<path fill="#FFFFFF" d="M288.842,86.072v9.539h-2.675v-8.798c0-3.771-1.579-5.027-3.932-5.027c-3.029,0-5.043,2.176-5.043,5.785  v8.023h-2.675V79.53h2.675v2.771h0.048c1.337-1.918,3.448-2.965,5.833-2.965C286.538,79.337,288.842,81.464,288.842,86.072z"></path>	<path fill="#FFFFFF" d="M316.91,87.313c0,0.387-0.048,0.951-0.08,1.079l0.016,0.017h-12.358c0.339,2.98,2.466,4.931,5.35,4.931  c1.998,0,3.528-0.919,4.528-2.159l1.869,1.596c-1.37,1.787-3.562,3.028-6.494,3.028c-4.561,0-7.992-3.335-7.992-8.233  c0-4.851,3.352-8.234,7.686-8.234C313.914,79.337,316.911,82.704,316.91,87.313L316.91,87.313z M309.578,81.803  c-2.514,0-4.527,1.659-5.026,4.383h9.7C313.833,83.56,312.125,81.803,309.578,81.803L309.578,81.803z"></path>	<path fill="#FFFFFF" d="M352.248,93.355h-0.016c-1.563,1.547-3.658,2.449-6.494,2.449c-4.174,0-7.461-2.739-7.461-6.896  c0-2.981,1.837-5.526,4.447-6.944l-2.836-3.385c0.322-3.867,3.11-6.639,6.945-6.639c3.771,0,5.914,2.305,6.848,4.416l-2.32,0.886  c-0.676-1.499-1.965-2.836-4.318-2.853c-2.69-0.016-4.092,1.66-4.318,3.738l9.523,11.377h0.016c0.854-1.499,1.241-3.223,1.241-4.77  l2.626-0.049c0,2.24-0.58,4.85-2.063,6.961v0.032l3.271,3.915h-3.223L352.248,93.355z M341.065,88.764  c0,2.578,1.981,4.464,4.931,4.464c1.966,0,3.513-0.678,4.673-1.709V91.47l-6.316-7.541  C342.29,84.929,341.065,86.829,341.065,88.764L341.065,88.764z"></path>	<path fill="#FFFFFF" d="M377.997,87.587c0-4.866,3.319-8.266,8.04-8.266c2.401,0,4.898,0.982,6.478,2.867l-1.853,1.611  c-1-1.191-2.578-2.014-4.496-2.014c-3.239,0-5.463,2.385-5.463,5.784c0,3.433,2.24,5.769,5.463,5.769  c1.885,0,3.561-0.805,4.56-1.917l1.854,1.659c-1.37,1.531-3.771,2.724-6.639,2.724C381.316,95.805,377.997,92.453,377.997,87.587z"></path>	<path fill="#FFFFFF" d="M404.31,87.587c0-4.641,3.319-8.25,8.314-8.25c4.737,0,8.266,3.352,8.266,8.25  c0,4.866-3.528,8.218-8.266,8.218C407.629,95.805,404.31,92.195,404.31,87.587z M412.624,93.34c3.094,0,5.559-2.368,5.559-5.753  c0-3.432-2.449-5.784-5.559-5.784c-3.352,0-5.607,2.577-5.607,5.784C407.017,90.761,409.305,93.339,412.624,93.34L412.624,93.34z"></path>	<path fill="#FFFFFF" d="M447.783,79.53v16.064h-2.675v-2.658h-0.049c-1.272,1.854-3.206,2.868-5.284,2.868  c-3.69,0-6.027-2.127-6.027-6.703V79.53h2.675v8.798c0,3.657,1.354,5.011,3.916,5.011s4.77-2.207,4.77-6.025V79.53H447.783z"></path>	<path fill="#FFFFFF" d="M469.761,79.337c0.242,0,0.468,0,0.661,0.033v2.947c-0.387-0.031-0.789-0.047-1.063-0.047  c-3.046,0-4.882,2.352-4.882,5.574v7.75h-2.676V79.53h2.676v2.804h0.064C465.732,80.433,467.586,79.337,469.761,79.337  L469.761,79.337z"></path>	<path fill="#FFFFFF" d="M487.583,95.806c-2.643,0-4.722-0.919-6.301-2.32l1.386-2.031c1.257,1.177,2.659,1.918,4.915,1.918  c1.917,0,3.046-0.967,3.046-2.143c0-1.387-1.483-1.822-3.819-2.644c-2.627-0.919-4.834-1.997-4.834-4.946  c0-2.449,2.256-4.303,5.317-4.303c1.918,0,3.738,0.516,5.526,1.982l-1.386,2.11c-1.418-1.225-2.9-1.676-4.27-1.676  c-1.225,0-2.466,0.726-2.466,1.886c0,1.257,1.321,1.869,3.046,2.529c3.384,1.305,5.623,1.885,5.607,5.027  C493.352,93.71,491.45,95.805,487.583,95.806L487.583,95.806z"></path>	<path fill="#FFFFFF" d="M520.406,88.393l0.016,0.017h-12.359c0.339,2.98,2.466,4.931,5.351,4.931c1.997,0,3.528-0.919,4.527-2.159  l1.869,1.596c-1.369,1.787-3.561,3.028-6.493,3.028c-4.561,0-7.992-3.335-7.992-8.233c0-4.851,3.352-8.234,7.686-8.234  c4.479,0,7.477,3.367,7.477,7.977C520.486,87.7,520.438,88.265,520.406,88.393z M508.127,86.186h9.701  c-0.42-2.626-2.128-4.383-4.674-4.383C510.641,81.803,508.627,83.462,508.127,86.186z"></path>	<path fill="#FFFFFF" d="M538.518,95.806c-2.643,0-4.722-0.919-6.301-2.32l1.387-2.031c1.256,1.177,2.658,1.918,4.914,1.918  c1.918,0,3.045-0.967,3.045-2.143c0-1.387-1.482-1.822-3.818-2.644c-2.627-0.919-4.834-1.997-4.834-4.946  c0-2.449,2.256-4.303,5.317-4.303c1.917,0,3.738,0.516,5.526,1.982l-1.386,2.11c-1.418-1.225-2.9-1.676-4.27-1.676  c-1.225,0-2.466,0.726-2.466,1.886c0,1.257,1.321,1.869,3.046,2.529c3.384,1.305,5.623,1.885,5.607,5.027  C544.286,93.71,542.385,95.805,538.518,95.806L538.518,95.806z"></path></g><g>	<line fill="#FFFFFF" stroke="#FFFFFF" stroke-width="1.9808" x1="25.663" y1="65.33" x2="85.908" y2="65.33"></line>	<line fill="#FFFFFF" stroke="#FFFFFF" stroke-width="1.8604" x1="95.869" y1="65.33" x2="551" y2="65.33"></line></g></svg>