<?xml version="1.0" encoding="UTF-8"?>
<svg width="200" height="67.547" version="1.1" viewBox="0 0 52.917 17.872" xmlns="http://www.w3.org/2000/svg">
 <g transform="translate(30.189 28.443)">
  <g transform="matrix(.68537 0 0 -.68537 10.464 -10.572)">
   <path d="m0 0c3.229 0 5.875 1.677 6.921 4.728h-3.908c-.694-.892-1.769-1.372-3.013-1.372-1.842 0-3.313 1.049-3.73 2.937l11.026.002c.071.483.111.993.111 1.526 0 4.994-3.212 7.819-7.407 7.819-4.193 0-7.405-2.825-7.405-7.819 0-4.996 3.212-7.821 7.405-7.821m0 12.263c1.868 0 3.361-1.081 3.752-3.026h-7.503c.393 1.945 1.883 3.026 3.751 3.026" fill="#ffffff"/>
  </g>
  <g transform="matrix(.68537 0 0 -.68537 1.0767 -10.572)">
   <path d="m0 0v7.562c0 2.726 1.687 4.268 3.868 4.268h.816v3.37h-.824c-4.191 0-7.404-2.824-7.404-7.819l.004-7.381z" fill="#ffffff"/>
  </g>
  <g transform="matrix(.68537 0 0 -.68537 -10.636 -10.572)">
   <path d="m0 0v14.888h-3.547l.007-14.888z" fill="#ffffff"/>
  </g>
  <g transform="matrix(.68537 0 0 -.68537 -17.39 -10.572)">
   <path d="m0 0h3.555v8.313c0 4.399-2.827 6.883-6.522 6.883-1.862 0-3.51-.634-4.66-1.83-1.17 1.199-2.816 1.839-4.686 1.839-3.692 0-6.518-2.489-6.355-6.886l.001-8.314h3.526v8.62c0 2.051 1.254 3.207 2.899 3.207 1.639 0 2.898-1.156 2.898-3.207l-.007-8.62h.034v-.005h3.525v8.625c0 2.048 1.257 3.205 2.896 3.205 1.643 0 2.9-1.157 2.9-3.205z" fill="#ffffff"/>
  </g>
  <g transform="matrix(.68537 0 0 -.68537 -5.0582 -10.572)">
   <path d="m0 0c.94 0 1.467-.024 2.639.218v3.049l-1.804.004c-.512 0-.904.343-.904.957v7.821h2.715v3.059h-2.715v4.705h-3.544v-4.705h-1.766v-3.059h1.766l.002-9.099c0-1.404.634-2.447 1.625-2.721h-.009c.632-.152 1.301-.229 1.995-.229" fill="#ffffff"/>
  </g>
  <g transform="matrix(.68537 0 0 -.68537 19.685 -28.443)">
   <path d="m0 0c-.247 0-.497-.023-.736-.062l-16.347-4.391 16.349-4.352c.242-.037.494-.062.748-.06 2.447.003 4.43 1.991 4.425 4.439-.002 2.447-1.989 4.429-4.439 4.426" fill="#ffffff"/>
  </g>
  <g transform="matrix(.68537 0 0 -.68537 18.018 -23.892)">
   <path d="m0 0 .004 1.461 1.836.744-1.844.745-.003 1.464 5.461-2.203z" fill="#fff"/>
  </g>
 </g>
</svg>
